{"accessors":[{"bufferView":0,"byteOffset":0,"componentType":5126,"count":4,"max":[0.2,0.1,0.0],"min":[0.0,0.0,0.0],"type":"VEC3"},{"bufferView":0,"byteOffset":48,"componentType":5126,"count":4,"max":[0.2,0.1,0.0],"min":[0.2,0.0,-0.2],"type":"VEC3"},{"bufferView":0,"byteOffset":96,"componentType":5126,"count":52,"max":[0.2,0.1,-0.2],"min":[0.0,0.0,-0.2998026728428272],"type":"VEC3"},{"bufferView":0,"byteOffset":720,"componentType":5126,"count":4,"max":[0.0,0.1,0.0],"min":[0.0,0.0,-0.2],"type":"VEC3"},{"bufferView":0,"byteOffset":768,"componentType":5126,"count":28,"max":[0.2,0.0,0.0],"min":[0.0,0.0,-0.2998026728428272],"type":"VEC3"},{"bufferView":0,"byteOffset":1104,"componentType":5126,"count":28,"max":[0.2,0.1,0.0],"min":[0.0,0.1,-0.2998026728428272],"type":"VEC3"},{"bufferView":1,"byteOffset":0,"componentType":5126,"count":4,"type":"VEC3"},{"bufferView":1,"byteOffset":48,"componentType":5126,"count":4,"type":"VEC3"},{"bufferView":1,"byteOffset":96,"componentType":5126,"count":52,"type":"VEC3"},{"bufferView":1,"byteOffset":720,"componentType":5126,"count":4,"type":"VEC3"},{"bufferView":1,"byteOffset":768,"componentType":5126,"count":28,"type":"VEC3"},{"bufferView":1,"byteOffset":1104,"componentType":5126,"count":28,"type":"VEC3"},{"bufferView":2,"byteOffset":0,"componentType":5123,"count":6,"type":"SCALAR"},{"bufferView":2,"byteOffset":12,"componentType":5123,"count":6,"type":"SCALAR"},{"bufferView":2,"byteOffset":24,"componentType":5123,"count":150,"type":"SCALAR"},{"bufferView":2,"byteOffset":324,"componentType":5123,"count":6,"type":"SCALAR"},{"bufferView":2,"byteOffset":336,"componentType":5123,"count":78,"type":"SCALAR"},{"bufferView":2,"byteOffset":492,"componentType":5123,"count":78,"type":"SCALAR"}],"asset":{"generator":"Open CASCADE Technology 7.6 [dev.opencascade.org]","version":"2.0"},"bufferViews":[{"buffer":0,"byteLength":1440,"byteOffset":0,"byteStride":12,"target":34962},{"buffer":0,"byteLength":1440,"byteOffset":1440,"byteStride":12,"target":34962},{"buffer":0,"byteLength":648,"byteOffset":2880,"target":34963}],"buffers":[{"byteLength":3528,"uri":"simple-BodyPad.bin"}],"materials":[{"name":"mat_0","pbrMetallicRoughness":{"baseColorFactor":[0.6038273572921753,0.6038273572921753,0.6038273572921753,1.0]},"doubleSided":true}],"meshes":[{"name":"Pad","primitives":[{"attributes":{"NORMAL":6,"POSITION":0},"indices":12,"material":0,"mode":4},{"attributes":{"NORMAL":7,"POSITION":1},"indices":13,"material":0,"mode":4},{"attributes":{"NORMAL":8,"POSITION":2},"indices":14,"material":0,"mode":4},{"attributes":{"NORMAL":9,"POSITION":3},"indices":15,"material":0,"mode":4},{"attributes":{"NORMAL":10,"POSITION":4},"indices":16,"material":0,"mode":4},{"attributes":{"NORMAL":11,"POSITION":5},"indices":17,"material":0,"mode":4}]}],"nodes":[{"mesh":0,"name":"Pad"}],"scene":0,"scenes":[{"nodes":[0]}]}